<svg width="22" height="22" viewBox="0 0 22 22" fill="none" xmlns="http://www.w3.org/2000/svg">
<path d="M7.82188 20.5344C8.99203 20.5344 9.94063 19.5858 9.94063 18.4156C9.94063 17.2455 8.99203 16.2969 7.82188 16.2969C6.65172 16.2969 5.70312 17.2455 5.70312 18.4156C5.70312 19.5858 6.65172 20.5344 7.82188 20.5344Z" stroke="#FFEAFB" stroke-width="1.05938" stroke-linecap="round" stroke-linejoin="round"/>
<path d="M16.2969 20.5344C17.467 20.5344 18.4156 19.5858 18.4156 18.4156C18.4156 17.2455 17.467 16.2969 16.2969 16.2969C15.1267 16.2969 14.1781 17.2455 14.1781 18.4156C14.1781 19.5858 15.1267 20.5344 16.2969 20.5344Z" stroke="#FFEAFB" stroke-width="1.05938" stroke-linecap="round" stroke-linejoin="round"/>
<path d="M1.46564 1.46558H3.58439L5.70314 14.1781C5.93167 14.828 6.36519 15.386 6.93839 15.7682C7.5116 16.1503 8.19346 16.3358 8.88126 16.2968H16.2969C16.9847 16.3358 17.6665 16.1503 18.2398 15.7682C18.813 15.386 19.2465 14.828 19.475 14.1781L20.5344 6.76245H4.43189" stroke="#FFEAFB" stroke-width="1.05938" stroke-linecap="round" stroke-linejoin="round"/>
</svg>
