<svg width="40" height="41" viewBox="0 0 40 41" fill="none" xmlns="http://www.w3.org/2000/svg">
<path d="M13.7448 20.4245L17.8627 24.5424L26.0985 16.3066" stroke="#7A306C" stroke-width="2.06897" stroke-linecap="round" stroke-linejoin="round"/>
<path d="M19.9216 1.89398C24.731 6.14896 31.008 8.36437 37.4227 8.07083C38.3566 11.2478 38.6424 14.5801 38.263 17.8697C37.8836 21.1594 36.8468 24.3391 35.2143 27.2202C33.5817 30.1012 31.3866 32.6246 28.7596 34.6405C26.1325 36.6564 23.127 38.1237 19.9216 38.9551C16.7163 38.1237 13.7107 36.6564 11.0837 34.6405C8.45657 32.6246 6.26153 30.1012 4.62896 27.2202C2.99639 24.3391 1.95961 21.1594 1.58023 17.8697C1.20085 14.5801 1.48661 11.2478 2.42054 8.07083C8.83525 8.36437 15.1123 6.14896 19.9216 1.89398Z" stroke="#7A306C" stroke-width="2.06897" stroke-linecap="round" stroke-linejoin="round"/>
</svg>
