<svg width="30" height="30" viewBox="0 0 30 30" fill="none" xmlns="http://www.w3.org/2000/svg">
<path d="M26.25 16.1082L15 27.2502L3.75005 16.1082C3.00801 15.3861 2.42352 14.5182 2.03337 13.5592C1.64323 12.6001 1.4559 11.5707 1.48316 10.5356C1.51042 9.50062 1.7517 8.48245 2.19179 7.54525C2.63188 6.60806 3.26125 5.77214 4.04028 5.09013C4.8193 4.40812 5.7311 3.8948 6.71825 3.58249C7.70541 3.27017 8.74654 3.16564 9.77608 3.27547C10.8056 3.38529 11.8013 3.7071 12.7003 4.22062C13.5994 4.73414 14.3824 5.42826 15 6.25925C15.6203 5.43429 16.4042 4.74624 17.3026 4.23817C18.2011 3.7301 19.1947 3.41294 20.2214 3.30654C21.248 3.20015 22.2856 3.30681 23.2691 3.61985C24.2527 3.93289 25.161 4.44557 25.9373 5.1258C26.7136 5.80604 27.3411 6.63918 27.7806 7.57309C28.2201 8.507 28.4621 9.52157 28.4914 10.5533C28.5208 11.585 28.3368 12.6117 27.9512 13.5691C27.5655 14.5265 26.9863 15.394 26.25 16.1172" stroke="#D2D2D2" stroke-width="2" stroke-linecap="round" stroke-linejoin="round"/>
</svg>
